<svg id="back-end" xmlns="http://www.w3.org/2000/svg" viewBox="0 0 97.08 97.08"><defs><style>.cls-1,.cls-2,.cls-3{fill:none;stroke:#231f20;stroke-miterlimit:10;}.cls-1{stroke-width:6px;}.cls-2{stroke-width:3px;}.cls-3{stroke-width:4px;}</style></defs><title>back-end</title><circle class="cls-1" cx="48.54" cy="48.54" r="45.54"/><rect class="cls-2" x="18.6" y="30.18" width="60" height="8.47" rx="2.94" ry="2.94"/><rect class="cls-2" x="18.56" y="30.18" width="30.81" height="8.47" rx="2.94" ry="2.94"/><circle class="cls-3" cx="54.85" cy="34.42" r="3.51"/><circle class="cls-3" cx="63.84" cy="34.42" r="3.51"/><circle class="cls-3" cx="72.83" cy="34.42" r="3.51"/><rect class="cls-2" x="18.56" y="45.61" width="60" height="8.47" rx="2.94" ry="2.94"/><rect class="cls-2" x="18.52" y="45.61" width="30.81" height="8.47" rx="2.94" ry="2.94"/><circle class="cls-3" cx="54.81" cy="49.84" r="3.51"/><circle class="cls-3" cx="63.8" cy="49.84" r="3.51"/><circle class="cls-3" cx="72.79" cy="49.84" r="3.51"/><rect class="cls-2" x="18.66" y="61.88" width="60" height="8.47" rx="2.94" ry="2.94"/><rect class="cls-2" x="18.62" y="61.88" width="30.81" height="8.47" rx="2.94" ry="2.94"/><circle class="cls-3" cx="54.91" cy="66.11" r="3.51"/><circle class="cls-3" cx="63.9" cy="66.11" r="3.51"/><circle class="cls-3" cx="72.88" cy="66.11" r="3.51"/></svg>