<svg id="data-end" xmlns="http://www.w3.org/2000/svg" viewBox="0 0 97.08 97.08">
  <defs>
    <style>.cls-1{fill:none;stroke:#231f20;stroke-miterlimit:10;stroke-width:6px;}
    	.cls-2{fill:#231f20;}
    </style>
  </defs>
  <title>server</title>
  <circle class="cls-1" cx="48.54" cy="48.54" r="45.54"/>
  <g>
    <path class="cls-2" d="M429.09,54.48c-14,0-25.32,4.13-25.32,9.23v7.57c0,5.1,11.33,9.23,25.32,9.23s25.32-4.13,25.32-9.23V63.71C454.4,58.61,443.07,54.48,429.09,54.48Z" transform="translate(-380.67 -36.67)"/>
    <path class="cls-2" d="M429.09,84.93c-13.35,0-24.35-3.77-25.32-8.55,0,0.23,0,12.51,0,12.51,0,5.1,11.33,9.23,25.32,9.23S454.4,94,454.4,88.89c0,0,0-12.28,0-12.51C453.42,81.16,442.44,84.93,429.09,84.93Z" transform="translate(-380.67 -36.67)"/>
    <path class="cls-2" d="M454.38,94.2c-1,4.78-11.94,8.55-25.29,8.55S404.73,99,403.77,94.2v12.51c0,5.1,11.33,9.23,25.32,9.23s25.32-4.13,25.32-9.23Z" transform="translate(-380.67 -36.67)"/>
  </g>
</svg>