<?xml version="1.0" encoding="utf-8"?>
<!-- Generator: Adobe Illustrator 19.2.1, SVG Export Plug-In . SVG Version: 6.00 Build 0)  -->
<svg version="1.1" id="Layer_1" xmlns="http://www.w3.org/2000/svg" xmlns:xlink="http://www.w3.org/1999/xlink" x="0px" y="0px"
	 viewBox="0 0 531.5 327.3" style="enable-background:new 0 0 531.5 327.3;" xml:space="preserve">
<style type="text/css">
	.st0{opacity:0.5;fill:#FFA64D;enable-background:new    ;}
	.st1{opacity:0.3;fill:#FFA64D;enable-background:new    ;}
	.st2{opacity:0.2;fill:#FFA64D;enable-background:new    ;}
	.st3{opacity:0.1;fill:#FFA64D;enable-background:new    ;}
</style>
<path class="st0" d="M143.1,194.2C161,176,389.5,4.1,393.4,8c3,3-166.9,234.2-184.9,252.3c-18,18.1-47.2,17.9-65.2-0.3
	C125.2,241.8,125.2,212.3,143.1,194.2z"/>
<path class="st1" d="M153.2,186.1c22-12.9,245.4-101.5,248.1-96.7c2.1,3.7-180,164.8-202.1,177.6c-22,12.8-50.1,5.1-62.8-17.3
	C123.7,227.5,131.2,199,153.2,186.1z"/>
<path class="st1" d="M216.5,249.9C229.3,227.7,317.1,2.7,312.4,0c-3.7-2.1-163.5,181.4-176.3,203.6c-12.7,22.2-5,50.5,17.2,63.2
	C175.4,279.6,203.7,272,216.5,249.9z"/>
<path class="st2" d="M163.9,181.4c24.6-6.7,230.9-32.2,232.4-26.9c1.1,4.1-184.2,110.3-208.8,117s-49.8-8.1-56.3-33
	C124.7,213.6,139.4,188.1,163.9,181.4z"/>
<path class="st3" d="M163.9,181.4c24.6-6.7,191.3,31,192.7,36.2c1.1,4.1-144.6,47.1-169.2,53.8s-49.8-8.1-56.3-33
	C124.7,213.6,139.4,188.1,163.9,181.4z"/>
<path class="st3" d="M221.2,239c6.7-24.8-30.8-192.7-36.1-194.1c-4.1-1.1-46.7,145.6-53.3,170.4c-6.6,24.8,8.1,50.2,32.8,56.6
	C189.2,278.5,214.6,263.8,221.2,239z"/>
<path class="st2" d="M221.2,239c6.7-24.8,31.9-232.6,26.7-234c-4.1-1.1-109.4,185.5-116.1,210.4c-6.6,24.8,8.1,50.2,32.8,56.6
	C189.2,278.6,214.6,263.8,221.2,239z"/>
</svg>
