<svg id="tools" xmlns="http://www.w3.org/2000/svg" viewBox="0 0 97.08 97.08">
   <defs>
      <style>
      	.cls-1{fill:none;stroke:#231f20;stroke-miterlimit:10;stroke-width:6px;} 
      	.cls-2{fill:#231f20;}
      </style>
   </defs>
   <title>tools</title>
   <circle class="cls-1" cx="48.54" cy="48.54" r="45.54"/>
 	 <g>
	   <path class="cls-2" d="M527.19,79.77a9.65,9.65,0,0,0,2.94-.46l5.64,5.64,6.18-6.18-5.64-5.64A9.6,9.6,0,0,0,534,63.43a9.49,9.49,0,0,0-6.75-2.8,9.66,9.66,0,0,0-4.13.93,0.66,0.66,0,0,0-.18,1.06l5.94,5.94a2.31,2.31,0,0,1,0,3.27,2.36,2.36,0,0,1-3.27,0l-5.94-5.94a0.66,0.66,0,0,0-1.06.18A9.56,9.56,0,0,0,527.19,79.77Z" transform="translate(-492.91 -38.96)"/>
	   <path class="cls-2" d="M557.33,90.75a9.65,9.65,0,0,0-2.94.46L548.15,85,542,91.15l6.24,6.24a9.61,9.61,0,0,0,2.34,9.69,9.49,9.49,0,0,0,6.75,2.8,9.66,9.66,0,0,0,4.13-.93,0.66,0.66,0,0,0,.18-1.06l-5.94-5.94a2.31,2.31,0,0,1,0-3.27,2.36,2.36,0,0,1,3.27,0l5.94,5.94a0.66,0.66,0,0,0,1.06-.18A9.56,9.56,0,0,0,557.33,90.75Z" transform="translate(-492.91 -38.96)"/>
	   <path class="cls-2" d="M554.79,76.67a2,2,0,0,0,1.88.48c1-.48,3.67,2.19,4.54,2.81h0l-0.47.47A1.59,1.59,0,1,0,563,82.7L566.75,79a1.59,1.59,0,0,0-2.25-2.25l-0.62.62c-0.52-.71-1.38-1.92-1.27-2.33,0.46-1.76-3.13-5.92-3.13-5.92-8.91-8.91-14.86-8.7-17.69-7.73-1.14.39-.93,0.64,0.25,0.85,8.59,1.5,9.65,6.56,8.2,8.52a1.44,1.44,0,0,0,.26,1.67l0.31,0.3-14.5,14.5a2.85,2.85,0,0,1,.56.42l2.44,2.44a2.83,2.83,0,0,1,.42.55l14.5-14.5Z" transform="translate(-492.91 -38.96)"/>
	   <path class="cls-2" d="M535.89,88.59a1.51,1.51,0,0,0-2-.07L517.76,103a1.27,1.27,0,0,0-.07,1.88l4.39,4.39a1.27,1.27,0,0,0,1.88-.07L538.41,93a1.51,1.51,0,0,0-.07-2Z" transform="translate(-492.91 -38.96)"/>
 	 </g>
</svg>